<?xml version="1.0"?>
<svg version="1.1" xmlns="http://www.w3.org/2000/svg" width="192" height="192" style="border: dashed 2px #aaa"><path fill="#d69c1e" d="M16.9072265625,122.095703125q-0.0302734375-0.908203125-0.0302734375-1.81640625q0-2.845703125,0.302734375-5.7216796875q0.36328125-3.814453125,0.484375-7.5078125q0.12109375-4.3291015625,0.36328125-8.9912109375q0.1513671875-2.54296875,0.1513671875-5.025390625q0-2.0283203125-0.0908203125-4.0263671875q0.302734375-0.6962890625,0.80224609375-0.9384765625t1.25634765625-0.2421875q0.36328125,0,0.77197265625,0.060546875t0.71142578125,0.302734375q0.423828125,0.060546875,1.04443359375,0.12109375t0.95361328125,0.36328125q0.12109375,0.181640625,0.62060546875,1.2412109375t1.1806640625,2.5732421875t1.4228515625,3.28466796875t1.4228515625,3.3603515625t1.1806640625,2.80029296875t0.62060546875,1.513671875q2.845703125-5.146484375,5.5703125-10.58056640625t5.9638671875-10.24755859375q0.302734375-0.423828125,1.04443359375-0.62060546875t1.22607421875-0.19677734375q1.3017578125,0,1.89208984375,0.62060546875t0.77197265625,1.58935546875q0.12109375,0.60546875,0.1513671875,1.3017578125q0.0302734375,0.36328125-0.0302734375,0.7568359375q-0.12109375,1.1201171875-0.12109375,2.119140625q0,7.0537109375-0.484375,14.00146484375t-0.8779296875,14.03173828125q-0.060546875,1.453125-0.060546875,3.02734375t0.060546875,3.26953125q0.0302734375,0.60546875,0.0302734375,1.1806640625q0,2.6640625-0.4541015625,4.96484375q-0.423828125,0.6962890625-1.392578125,0.8779296875t-1.634765625,0.181640625q-1.4228515625,0-2.724609375-0.666015625l-0.3330078125-0.3935546875l-0.12109375-0.484375t-0.060546875-0.484375q0-4.3896484375,0.31787109375-8.83984375t0.71142578125-8.88525390625t0.83251953125-8.85498046875t0.74169921875-8.83984375q-1.7861328125,2.966796875-3.46630859375,6.03955078125t-3.16357421875,6.25146484375q-0.544921875,1.2412109375-1.04443359375,2.6640625t-1.19580078125,2.54296875q-0.36328125,0.544921875-1.22607421875,0.666015625t-1.49853515625,0.12109375q-0.60546875,0-1.25634765625-0.2119140625t-0.89306640625-0.908203125q-1.1201171875-3.4208984375-2.3916015625-6.6904296875t-2.5732421875-6.6298828125q0,2.240234375,0.0908203125,5.79736328125t0.0908203125,7.37158203125t-0.12109375,7.2958984375t-0.5751953125,5.509765625q-0.12109375,0.7568359375-0.98388671875,0.9384765625t-1.49853515625,0.181640625q-0.484375,0-0.92333984375-0.060546875t-0.86279296875-0.2421875z M52.862080078125,116.94921875q0-2.119140625,0.46923828125-4.9951171875t1.58935546875-5.44921875t2.95166015625-4.37451171875t4.61669921875-1.80126953125q2.603515625,0,3.9052734375,1.49853515625t1.3017578125,4.04150390625q0,1.6650390625-0.62060546875,3.64794921875t-1.77099609375,3.75390625t-2.724609375,2.95166015625t-3.51171875,1.1806640625l-0.787109375-0.060546875q0,0.8173828125,0.2421875,2.19482421875t0.71142578125,2.73974609375t1.2109375,2.3916015625t1.80126953125,1.029296875q1.5439453125,0,2.966796875-1.2412109375t2.6943359375-2.7548828125t2.361328125-2.7548828125t1.998046875-1.2412109375q0.484375,0,0.9990234375,0.1513671875t0.5751953125,0.84765625q0,0.423828125-0.22705078125,0.6962890625t-0.40869140625,0.60546875q-0.9384765625,1.6044921875-2.04345703125,3.0576171875t-2.49755859375,2.6337890625t-3.04248046875,1.86181640625t-3.64794921875,0.68115234375q-2.603515625,0-4.3291015625-0.92333984375t-2.78515625-2.482421875t-1.52880859375-3.6025390625t-0.46923828125-4.28369140625z M58.281025390625,114.6484375l0.84765625,0.7568359375q0.60546875,0.544921875,1.2109375,0.2421875t1.08984375-1.10498046875t0.89306640625-1.98291015625t0.7265625-2.421875t0.46923828125-2.421875t0.1513671875-1.9677734375l0-1.029296875t-0.0908203125-1.08984375t-0.31787109375-0.86279296875t-0.71142578125-0.43896484375q-0.1513671875-0.0302734375-0.2724609375-0.0302734375q-1.029296875,0-1.755859375,1.3017578125q-0.787109375,1.453125-1.271484375,3.52685546875t-0.6962890625,4.25341796875t-0.2724609375,3.26953125z M78.16068359375,116.94921875q0-2.119140625,0.46923828125-4.9951171875t1.58935546875-5.44921875t2.95166015625-4.37451171875t4.61669921875-1.80126953125q2.603515625,0,3.9052734375,1.49853515625t1.3017578125,4.04150390625q0,1.6650390625-0.62060546875,3.64794921875t-1.77099609375,3.75390625t-2.724609375,2.95166015625t-3.51171875,1.1806640625l-0.787109375-0.060546875q0,0.8173828125,0.2421875,2.19482421875t0.71142578125,2.73974609375t1.2109375,2.3916015625t1.80126953125,1.029296875q1.5439453125,0,2.966796875-1.2412109375t2.6943359375-2.7548828125t2.361328125-2.7548828125t1.998046875-1.2412109375q0.484375,0,0.9990234375,0.1513671875t0.5751953125,0.84765625q0,0.423828125-0.22705078125,0.6962890625t-0.40869140625,0.60546875q-0.9384765625,1.6044921875-2.04345703125,3.0576171875t-2.49755859375,2.6337890625t-3.04248046875,1.86181640625t-3.64794921875,0.68115234375q-2.603515625,0-4.3291015625-0.92333984375t-2.78515625-2.482421875t-1.52880859375-3.6025390625t-0.46923828125-4.28369140625z M83.57962890625,114.6484375l0.84765625,0.7568359375q0.60546875,0.544921875,1.2109375,0.2421875t1.08984375-1.10498046875t0.89306640625-1.98291015625t0.7265625-2.421875t0.46923828125-2.421875t0.1513671875-1.9677734375l0-1.029296875t-0.0908203125-1.08984375t-0.31787109375-0.86279296875t-0.71142578125-0.43896484375q-0.1513671875-0.0302734375-0.2724609375-0.0302734375q-1.029296875,0-1.755859375,1.3017578125q-0.787109375,1.453125-1.271484375,3.52685546875t-0.6962890625,4.25341796875t-0.2724609375,3.26953125z M102.21807617187,96.484375q0-0.423828125,0.908203125-0.7265625t2.05859375-0.49951171875t2.22509765625-0.28759765625t1.46826171875-0.1513671875q0-0.8173828125,0.060546875-1.64990234375t0.3330078125-1.4833984375t0.86279296875-1.04443359375t1.64990234375-0.3935546875q0.8779296875,0,1.33203125,0.2119140625t0.96875,0.8779296875q0.12109375,0.36328125,0.12109375,0.6962890625l0,1.01416015625t-0.060546875,1.04443359375q1.1201171875-0.12109375,2.22509765625-0.28759765625t2.22509765625-0.16650390625q0.8173828125,0,1.1201171875,0.0302734375t0.60546875,0.7265625q0.2421875,0.6962890625-0.59033203125,1.0595703125t-1.998046875,0.544921875t-2.31591796875,0.2724609375t-1.392578125,0.0908203125q-0.36328125,5.20703125-0.74169921875,10.3232421875t-0.37841796875,10.3837890625q0,2.361328125,0.1513671875,4.8740234375t0.84765625,4.7529296875q0.181640625,0.6962890625,0.60546875,1.3017578125t0.423828125,1.3017578125q0,0.423828125-0.3330078125,0.666015625t-0.80224609375,0.40869140625t-0.9384765625,0.19677734375t-0.77197265625,0.0302734375q-1.9072265625,0-2.90625-1.4228515625t-1.43798828125-3.40576171875t-0.46923828125-4.07177734375t-0.0302734375-3.390625q0-2.6640625,0.10595703125-5.44921875t0.25732421875-5.509765625t0.423828125-5.328125t0.6357421875-4.84375q-1.0595703125,0.12109375-2.07373046875,0.2724609375t-2.07373046875,0.1513671875q-0.2421875,0-0.65087890625-0.0302734375t-0.77197265625-0.1513671875t-0.62060546875-0.3330078125t-0.25732421875-0.60546875z M124.1260546875,113.0439453125q0-0.60546875,0.13623046875-1.6044921875t0.31787109375-1.98291015625t0.423828125-1.83154296875t0.5751953125-1.08984375q0.2421875-0.2421875,0.83251953125-0.484375t1.2412109375-0.34814453125t1.2109375,0.0908203125t0.68115234375,0.80224609375q-0.423828125,0.544921875-0.77197265625,1.86181640625t-0.52978515625,2.92138671875q-0.1513671875,1.3623046875-0.1513671875,2.8154296875l0,0.5146484375q0.0302734375,1.6953125,0.302734375,3.1181640625t0.83251953125,2.34619140625t1.55908203125,0.92333984375q2.119140625,0,3.875-1.95263671875t3.1181640625-4.76806640625t2.3916015625-5.97900390625t1.755859375-5.52490234375q0.181640625-0.6962890625,0.86279296875-0.9384765625t1.46826171875-0.16650390625t1.40771484375,0.37841796875t0.74169921875,0.7265625q-0.60546875,5.0859375-0.95361328125,10.171875t-0.34814453125,10.232421875q0,0.9990234375,0.0908203125,1.83154296875t-0.0908203125,1.4228515625t-0.80224609375,0.9384765625t-1.98291015625,0.34814453125q-0.302734375,0-0.77197265625-0.060546875t-0.96875-0.19677734375t-0.84765625-0.40869140625t-0.34814453125-0.6357421875q0-2.240234375,0.16650390625-4.6015625t0.46923828125-4.5712890625q-0.8173828125,1.1806640625-1.80126953125,2.34619140625t-2.16455078125,2.10400390625t-2.54296875,1.49853515625t-2.9365234375,0.56005859375q-2.240234375,0-3.52685546875-1.0595703125t-1.9375-2.64892578125t-0.8173828125-3.46630859375t-0.16650390625-3.6328125z M152.60336914063,104.7490234375q0-1.4228515625,0.56005859375-2.10400390625t2.04345703125-0.68115234375q0.8779296875,0,1.64990234375,0.36328125t0.77197265625,1.5439453125q0.12109375,1.7255859375,0.12109375,3.61767578125t0.3330078125,3.58740234375q0.7568359375-1.2412109375,1.71044921875-2.482421875t2.10400390625-2.2099609375t2.5126953125-1.55908203125t2.966796875-0.59033203125q2.1796875,0,3.693359375,0.908203125t2.49755859375,2.361328125t1.4228515625,3.28466796875t0.43896484375,3.67822265625q0,2.845703125-0.86279296875,4.64697265625t-2.28564453125,2.83056640625t-3.22412109375,1.392578125t-3.61767578125,0.36328125q-1.6044921875,0-2.9970703125-0.62060546875t-1.9375-2.34619140625q0-0.484375,0.71142578125-0.60546875t1.01416015625-0.12109375q0.9990234375,0,1.4833984375,0.544921875q0.36328125,0.423828125,0.80224609375,0.86279296875t0.92333984375,0.43896484375q0.9384765625,0,1.9677734375-0.52978515625t1.89208984375-1.392578125t1.453125-2.04345703125t0.59033203125-2.421875q0-1.0595703125-0.181640625-2.6337890625t-0.62060546875-3.02734375t-1.2109375-2.5126953125t-1.95263671875-1.0595703125q-1.7861328125,0-3.22412109375,1.634765625t-2.3916015625,3.935546875t-1.4833984375,4.783203125t-0.52978515625,4.1474609375t0.2119140625,4.2080078125t0.43896484375,5.28271484375t0.43896484375,5.28271484375t0.2119140625,4.2080078125q0,0.423828125-0.34814453125,0.68115234375t-0.83251953125,0.40869140625t-0.98388671875,0.181640625t-0.74169921875,0.0302734375q-0.8173828125,0-1.71044921875-0.181640625t-1.22607421875-1.1201171875q-0.423828125-1.4833984375-0.787109375-4.22314453125t-0.65087890625-6.0546875t-0.49951171875-6.962890625t-0.36328125-7.03857421875t-0.22705078125-6.2060546875t-0.07568359375-4.48046875z"/><path fill="#" d=""/></svg>
