<?xml version="1.0"?>
<svg version="1.1" xmlns="http://www.w3.org/2000/svg" width="400" height="200" style=""><path fill="#" d="M15.98,116.8l0-2.38l2.1-0.84l0-13.16l-2.1-0.84l0-2.38l6.72-0.14l7.56,12.936l0-9.576l-2.044-0.84l0-2.38l7.98-0.14l0,2.52l-2.1,0.84l0,16.38l-4.676,0l-7.504-12.684l0,9.464l2.184,0.84l0,2.38l-8.12,0z M49.76228,96.724c5.6,0,8.82,3.696,8.82,9.94c0,6.3-3.78,10.5-9.38,10.5s-8.68-3.5-8.68-10.08c0-6.44,3.556-10.36,9.24-10.36z M49.62228,100.224c-2.8,0-4.34,1.736-4.34,6.72c0,4.62,1.26,6.72,4.06,6.72s4.48-1.82,4.48-6.86c0-4.62-1.4-6.58-4.2-6.58z M63.04856,116.8l0-2.38l2.1-0.84l0-13.16l-2.1-0.84l0-2.38l6.44-0.14l2.128,0c4.592,0,7.28,1.904,7.28,5.712c0,2.632-1.26,4.34-3.164,5.292c0.308,0.364,0.728,0.896,1.176,1.82l1.876,3.836l1.904,0.7l0,2.38l-5.18,0l-2.352-5.18c-0.952-2.128-1.204-2.576-2.688-2.576l-0.98,0l0,4.536l2.016,0.84l0,2.38l-8.456,0z M69.48856,106.104l1.596,0c2.212,0,3.5-1.064,3.5-2.94c0-1.596-1.064-2.744-2.8-2.744l-2.296,0l0,5.684z M90.33484,97.06l2.94,0c3.64,0,6.16,1.54,6.16,4.844c0,2.436-1.148,3.92-3.36,4.62c2.632,0.756,4.004,2.324,4.004,4.48c0,4.116-2.744,5.796-7.28,5.796l-8.904,0l0-2.38l2.1-0.84l0-13.16l-2.1-0.84l0-2.38z M90.33484,105.124l1.624,0c2.044,0,3.136-0.868,3.136-2.604c0-1.456-1.036-2.1-2.38-2.1l-2.38,0l0,4.704z M90.33484,113.44l2.324,0c1.96,0,2.996-0.896,2.996-2.436c0-2.044-1.176-2.94-3.696-2.94l-1.624,0l0,5.376z M114.06512,96.724c5.6,0,8.82,3.696,8.82,9.94c0,6.3-3.78,10.5-9.38,10.5s-8.68-3.5-8.68-10.08c0-6.44,3.556-10.36,9.24-10.36z M113.92512,100.224c-2.8,0-4.34,1.736-4.34,6.72c0,4.62,1.26,6.72,4.06,6.72s4.48-1.82,4.48-6.86c0-4.62-1.4-6.58-4.2-6.58z"/><path fill="#" d="M134.8714,112.88l0-15.12l-2.38-0.56l0-1.54l5.18-0.14l3.22,0c3.5,0,6.02,1.54,6.02,4.9c0,2.52-1.288,3.948-3.64,4.536c2.94,0.672,4.34,2.324,4.34,4.564c0,3.92-2.52,5.6-7.14,5.6l-7.98,0l0-1.68z M137.6714,103.92l2.1,0c2.52,0,4.2-0.98,4.2-3.22c0-1.96-1.4-2.94-3.22-2.94l-3.08,0l0,6.16z M137.6714,112.88l2.94,0c2.66,0,4.06-1.12,4.06-3.22c0-2.8-1.82-3.64-4.9-3.64l-2.1,0l0,6.86z M162.9722,112.88l0.56-3.22l1.96,0l0,5.46l-13.58,0l0-1.68l2.38-0.56l0-15.12l-2.38-0.56l0-1.54l7.7-0.14l0,1.68l-2.38,0.56l0,15.12l5.74,0z M178.473,95.24c5.46,0,8.68,3.78,8.68,9.8c0,6.16-3.78,10.36-9.24,10.36s-8.54-3.5-8.54-9.94c0-6.16,3.5-10.22,9.1-10.22z M178.333,97.62c-3.64,0-5.74,2.38-5.74,7.7c0,5.04,1.82,7.7,5.46,7.7s5.88-2.52,5.88-7.84c0-5.04-1.96-7.56-5.6-7.56z M208.5338,107.728l0,5.992s-2.968,1.68-7.14,1.68c-5.6,0-8.96-3.36-8.96-9.66c0-6.44,3.64-10.5,9.38-10.5c3.08,0,6.3,1.4,6.3,1.4l-0.14,4.62l-1.82,0l-0.84-3.08s-1.68-0.56-3.78-0.56c-3.78,0-5.88,2.8-5.88,7.98c0,5.04,2.52,7.42,6.16,7.42c1.96,0,3.92-0.7,3.92-0.7l0-4.592l-2.38-0.56l0-1.54l7.28-0.14l0,1.68z"/></svg>
